PathFileType	4	(X/Y/Z)	/Users/itak/Documents/Research/Walk-IL/dataset/trc/00009_00004.trc
DataRate	CameraRate	NumFrames	NumMarkers	Units	OrigDataRate	OrigDataStartFrame	OrigNumFrames
100.000000	100.000000	4	53	mm	100.000000	157	630
Frame#	Time	RPSI			LPSI			L3			STRN			T10			C7			CLAV			RBAK			LBAK			LSHO			LUPA			LAEL			LAOL			LWTS			LWPS			LFRA			LIFD			LHPS			LHTS			RSHO			RUPA			RAEL			RAOL			RWTS			RWPS			RFRA			RIFD			RHTS			RHPS			RBHD			LFHD			RFHD			LBHD			LHIP			RHIP			RASI			LASI			LKNE			LTHI			LANK			LTIP			LTOE			LMT1			LMT5			LHEE			RKNE			RTHI			RANK			RTIP			RTOE			RMT1			RMT5			RHEE			
		X1	Y1	Z1	X2	Y2	Z2	X3	Y3	Z3	X4	Y4	Z4	X5	Y5	Z5	X6	Y6	Z6	X7	Y7	Z7	X8	Y8	Z8	X9	Y9	Z9	X10	Y10	Z10	X11	Y11	Z11	X12	Y12	Z12	X13	Y13	Z13	X14	Y14	Z14	X15	Y15	Z15	X16	Y16	Z16	X17	Y17	Z17	X18	Y18	Z18	X19	Y19	Z19	X20	Y20	Z20	X21	Y21	Z21	X22	Y22	Z22	X23	Y23	Z23	X24	Y24	Z24	X25	Y25	Z25	X26	Y26	Z26	X27	Y27	Z27	X28	Y28	Z28	X29	Y29	Z29	X30	Y30	Z30	X31	Y31	Z31	X32	Y32	Z32	X33	Y33	Z33	X34	Y34	Z34	X35	Y35	Z35	X36	Y36	Z36	X37	Y37	Z37	X38	Y38	Z38	X39	Y39	Z39	X40	Y40	Z40	X41	Y41	Z41	X42	Y42	Z42	X43	Y43	Z43	X44	Y44	Z44	X45	Y45	Z45	X46	Y46	Z46	X47	Y47	Z47	X48	Y48	Z48	X49	Y49	Z49	X50	Y50	Z50	X51	Y51	Z51	X52	Y52	Z52	X53	Y53	Z53	

158	1.57	-1187.299560546875	1069.168334960938	-118.3079147338867	-1203.015991210938	1064.041381835938	-281.2695007324219	-1196.633911132812	1135.02294921875	-205.128173828125	-961.9624633789062	1309.415649414062	-215.7647705078125	-1212.18798828125	1276.16943359375	-203.5796813964844	-1149.554931640625	1540.378784179688	-220.3136291503906	-996.2978515625	1437.8779296875	-220.3151245117188	-1204.4072265625	1407.67919921875	-136.0032501220703	-1172.890625	1498.697509765625	-317.48681640625	-1072.251220703125	1497.319946289062	-396.0725402832031	-1112.152954101562	1373.383544921875	-469.4388427734375	-1126.0224609375	1156.531372070312	-495.6983642578125	-1179.963256835938	1146.676635742188	-404.8604431152344	-1047.865966796875	900.1703491210938	-444.3384094238281	-1127.009033203125	888.8729248046875	-482.5067138671875	-1118.840576171875	1040.128295898438	-502.3203125	-1020.231140136719	720.1659545898438	-426.7953796386719	-1096.909423828125	798.3203735351562	-483.2411804199219	-1030.003662109375	806.4479370117188	-459.72607421875	-1063.5224609375	1523.944213867188	-49.12894058227539	-1077.338623046875	1453.498779296875	25.7766227722168	-1129.13427734375	1187.73046875	55.21455764770508	-1140.086547851562	1159.113403320312	-40.74135208129883	-1015.07958984375	921.7918090820312	18.43197059631348	-1076.959838867188	911.4163818359375	87.43624877929688	-1119.249145507812	1111.327392578125	70.45587158203125	-1008.896240234375	735.5582885742188	4.642343521118164	-987.7752685546875	810.47216796875	32.70982360839844	-1040.98046875	809.3129272460938	85.34281158447266	-1080.275390625	1716.3359375	-150.6176910400391	-919.370849609375	1725.281127929688	-288.9182434082031	-909.93701171875	1731.698486328125	-190.7772064208984	-1101.681396484375	1711.096557617188	-293.4486694335938	-1115.933349609375	964.8609619140625	-400.25830078125	-1073.238647460938	953.4545288085938	-23.85671615600586	-973.3093872070312	981.1458740234375	-106.5530776977539	-997.0482788085938	1004.227294921875	-340.4807434082031	-983.886962890625	524.368896484375	-372.3497619628906	-1036.626342773438	659.8536987304688	-399.4017639160156	-1189.269165039062	60.26554107666016	-381.3644104003906	-1109.603881835938	298.3619079589844	-394.6366271972656	-975.2036743164062	50.7074089050293	-309.6982421875	-1034.815551757812	59.95784759521484	-293.9360046386719	-1064.607421875	49.59356307983398	-394.7955017089844	-1260.351928710938	74.37918853759766	-331.3840942382812	-1092.867919921875	517.3377685546875	-89.77851104736328	-1056.338500976562	783.9615478515625	-35.88731384277344	-1237.449829101562	44.30950546264648	-136.4786987304688	-1126.638427734375	395.4101867675781	-93.81029510498047	-1004.848815917969	46.55629730224609	-174.8452758789062	-1066.811157226562	51.41970062255859	-205.9634704589844	-1088.9775390625	44.87680816650391	-111.2158432006836	-1292.3173828125	45.29212188720703	-182.7051849365234	
159	1.58	-1184.766357421875	1068.818237304688	-117.7299499511719	-1200.35986328125	1063.738891601562	-280.7175903320312	-1193.9931640625	1134.69287109375	-204.4705657958984	-959.401123046875	1309.17626953125	-215.1413116455078	-1209.656860351562	1276.00341796875	-202.8188323974609	-1146.891723632812	1540.1826171875	-219.5202331542969	-993.7403564453125	1437.63134765625	-219.7008972167969	-1201.7587890625	1407.52685546875	-135.1741333007812	-1170.405029296875	1498.54443359375	-316.6378784179688	-1069.864135742188	1497.08544921875	-395.3723754882812	-1110.100708007812	1373.176391601562	-468.6213989257812	-1124.391845703125	1156.363037109375	-494.8126831054688	-1177.996704101562	1146.559814453125	-403.7514953613281	-1046.16455078125	900.0202026367188	-443.85205078125	-1125.573364257812	888.70947265625	-481.6087036132812	-1117.385009765625	1039.953247070312	-501.4557800292969	-1018.642150878906	720.0133056640625	-426.2443542480469	-1095.530517578125	798.1238403320312	-482.4744873046875	-1028.509643554688	806.201416015625	-459.2503356933594	-1060.732299804688	1523.711181640625	-48.43623352050781	-1074.50048828125	1453.25830078125	26.47724342346191	-1126.296875	1187.563598632812	56.24204635620117	-1137.380126953125	1158.842407226562	-39.65763092041016	-1012.420288085938	921.5339965820312	19.59774971008301	-1074.148315429688	911.2996215820312	88.75617980957031	-1116.389282226562	1111.185913085938	71.57035827636719	-1006.441162109375	735.2471313476562	6.082746982574463	-985.1790161132812	810.2018432617188	33.98735046386719	-1038.218872070312	809.1508178710938	86.73219299316406	-1077.22705078125	1716.124755859375	-149.9635925292969	-916.0078735351562	1724.720947265625	-287.9290161132812	-906.77685546875	1731.058349609375	-189.772705078125	-1098.351806640625	1711.011108398438	-292.8709106445312	-1112.839477539062	964.9514770507812	-399.7961730957031	-1070.895385742188	952.9456176757812	-23.27528953552246	-970.7593994140625	980.8228149414062	-105.705322265625	-994.235595703125	1004.344360351562	-339.649658203125	-976.0572509765625	525.4096069335938	-372.0610046386719	-1030.437133789062	660.5201416015625	-399.114990234375	-1182.138671875	61.38630676269531	-380.6225280761719	-1101.74609375	299.1825256347656	-394.10693359375	-968.2792358398438	51.83875274658203	-308.4535827636719	-1028.001708984375	61.08276748657227	-292.7023010253906	-1057.507202148438	50.66259384155273	-393.620361328125	-1253.368286132812	75.60365295410156	-330.8182678222656	-1091.627197265625	516.949462890625	-89.42100524902344	-1054.315063476562	783.4867553710938	-35.46732711791992	-1237.423706054688	44.32796478271484	-136.5027770996094	-1125.7236328125	395.12646484375	-93.61526489257812	-1004.834838867188	46.52413177490234	-174.8157348632812	-1066.79736328125	51.40628433227539	-205.93603515625	-1088.98828125	44.84888076782227	-111.1867294311523	-1292.282592773438	45.30875015258789	-182.7068786621094	
160	1.59	-1182.101928710938	1068.482543945312	-117.2265243530273	-1197.542602539062	1063.515502929688	-280.240234375	-1191.206298828125	1134.399658203125	-203.8692932128906	-956.72412109375	1308.996459960938	-214.5354461669922	-1207.015258789062	1275.839477539062	-202.0935974121094	-1144.171508789062	1539.991943359375	-218.7787170410156	-991.0984497070312	1437.440185546875	-219.1260375976562	-1199.019409179688	1407.386596679688	-134.3856353759766	-1167.84619140625	1498.3896484375	-315.8314819335938	-1067.409057617188	1496.881469726562	-394.7165222167969	-1107.981689453125	1373.002075195312	-467.8421630859375	-1122.721435546875	1156.232055664062	-493.9523010253906	-1175.960693359375	1146.483276367188	-402.6533508300781	-1044.387451171875	899.91552734375	-443.4076232910156	-1124.098999023438	888.578369140625	-480.7208862304688	-1115.892578125	1039.811889648438	-500.61083984375	-1017.097229003906	719.8563232421875	-425.7016296386719	-1094.118774414062	797.9559326171875	-481.7169189453125	-1026.984619140625	805.9923706054688	-458.7921142578125	-1057.885620117188	1523.539916992188	-47.79983520507812	-1071.595947265625	1453.096313476562	27.13010597229004	-1123.339965820312	1187.459350585938	57.19141387939453	-1134.545288085938	1158.644165039062	-38.65756988525391	-1009.661010742188	921.3345947265625	20.67287635803223	-1071.229614257812	911.2423706054688	89.98927307128906	-1113.406982421875	1111.111328125	72.60103607177734	-1003.899536132812	735.0023803710938	7.416333675384521	-982.5095825195312	809.9743041992188	35.16987228393555	-1035.369750976562	809.0405883789062	88.02748107910156	-1074.129516601562	1715.964233398438	-149.3715209960938	-912.5869750976562	1724.18603515625	-286.9822387695312	-903.5628662109375	1730.440795898438	-188.8159027099609	-1094.96337890625	1710.983520507812	-292.3568725585938	-1109.578979492188	965.1474609375	-399.4078369140625	-1068.463256835938	952.4094848632812	-22.77173805236816	-968.0927124023438	980.5122680664062	-104.8926773071289	-991.2607421875	1004.544311523438	-338.8462219238281	-968.4132690429688	526.5867309570312	-371.6999816894531	-1024.384033203125	661.269775390625	-398.8093566894531	-1173.945556640625	62.16177368164062	-379.8775024414062	-1093.584594726562	299.9241027832031	-393.5407104492188	-960.2483520507812	53.00089645385742	-307.3094787597656	-1020.068786621094	62.1556510925293	-291.5540466308594	-1049.339599609375	51.62660980224609	-392.5191345214844	-1245.326416015625	76.36392974853516	-330.2001647949219	-1090.308715820312	516.55712890625	-89.14704895019531	-1052.214111328125	782.9917602539062	-35.11666107177734	-1237.38720703125	44.35892105102539	-136.5405578613281	-1124.740234375	394.8418579101562	-93.4908447265625	-1004.812377929688	46.48612213134766	-174.7830657958984	-1066.77587890625	51.38737869262695	-205.9112854003906	-1088.993408203125	44.82146835327148	-111.1618041992188	-1292.236328125	45.33139419555664	-182.7111206054688	
161	1.6	-1179.310913085938	1068.155639648438	-116.7966156005859	-1194.580444335938	1063.357788085938	-279.8343200683594	-1188.280029296875	1134.138427734375	-203.3223266601562	-953.9276733398438	1308.861450195312	-213.9467468261719	-1204.256958007812	1275.67138671875	-201.4026489257812	-1141.383178710938	1539.800415039062	-218.0882110595703	-988.3613891601562	1437.291625976562	-218.5876312255859	-1196.18212890625	1407.250122070312	-133.6365509033203	-1165.199096679688	1498.220825195312	-315.0689086914062	-1064.871948242188	1496.69482421875	-394.103271484375	-1105.783081054688	1372.8486328125	-467.1007995605469	-1121.0068359375	1156.127075195312	-493.119873046875	-1173.852416992188	1146.43603515625	-401.5712585449219	-1042.533203125	899.8416748046875	-442.9999084472656	-1122.57763671875	888.4693603515625	-479.8466491699219	-1114.355224609375	1039.693115234375	-499.7889709472656	-1015.553283691406	719.7025146484375	-425.1806335449219	-1092.662963867188	797.8065795898438	-480.970947265625	-1025.420043945312	805.8126831054688	-458.3530883789062	-1054.973388671875	1523.419311523438	-47.21667098999023	-1068.618041992188	1453.00244140625	27.73860931396484	-1120.272216796875	1187.408081054688	58.0667839050293	-1131.588134765625	1158.509887695312	-37.73762893676758	-1006.792724609375	921.1907348632812	21.65670967102051	-1068.201049804688	911.2338256835938	91.12815093994141	-1110.3125	1111.091430664062	73.54977416992188	-1001.242431640625	734.8230590820312	8.633335113525391	-979.7459716796875	809.7901611328125	36.25088882446289	-1032.421630859375	808.9783325195312	89.21917724609375	-1070.985473632812	1715.842041015625	-148.8415985107422	-909.1190795898438	1723.67431640625	-286.0831604003906	-900.3004150390625	1729.849853515625	-187.9117736816406	-1091.5234375	1710.993041992188	-291.9051513671875	-1106.165893554688	965.42822265625	-399.089599609375	-1065.941528320312	951.8445434570312	-22.34810447692871	-965.3111572265625	980.2047119140625	-104.1222991943359	-988.1405639648438	1004.810119628906	-338.0762634277344	-960.9223022460938	527.885009765625	-371.2496032714844	-1018.422424316406	662.0873413085938	-398.4677429199219	-1164.720947265625	62.59391403198242	-379.1469421386719	-1085.109619140625	300.5746459960938	-392.9456481933594	-951.1282958984375	54.14488983154297	-306.3298645019531	-1011.019409179688	63.12972640991211	-290.551513671875	-1040.135375976562	52.46868896484375	-391.5443725585938	-1236.237915039062	76.65647888183594	-329.5331726074219	-1088.903198242188	516.1583862304688	-88.95095825195312	-1050.028076171875	782.474365234375	-34.83880233764648	-1237.343994140625	44.401611328125	-136.5929870605469	-1123.685424804688	394.5528564453125	-93.42992401123047	-1004.780883789062	46.440673828125	-174.7474670410156	-1066.746215820312	51.36231231689453	-205.8886108398438	-1088.9921875	44.79510116577148	-111.1406097412109	-1292.180419921875	45.36203765869141	-182.7179260253906	
